    <svg
      width="31"
      height="42"
      viewBox="0 0 31 42"
      fill="none"
      xmlns="http://www.w3.org/2000/svg"
    >
      <path
        fillRule="evenodd"
        clipRule="evenodd"
        d="M30.6247 15.7909C30.6247 22.979 21.2937 35.7762 17.2025 41.0563C16.2215 42.3146 14.4032 42.3146 13.4222 41.0563C9.33097 35.7762 0 22.979 0 15.7909C0 7.07299 6.85866 0 15.3124 0C23.766 0 30.6247 7.07299 30.6247 15.7909Z"
        fill="#F98600"
      />
      <path
        d="M20.5409 20.3332H9.46008L8.57675 22.8332H6.66675V24.4998H23.3334V22.8332H21.4234L20.5409 20.3332ZM10.0476 18.6665H19.9526L18.7759 15.3332H11.2242L10.0476 18.6665ZM15.8334 8.6665H14.1667C13.9944 8.66649 13.8262 8.71994 13.6855 8.81949C13.5447 8.91904 13.4383 9.05979 13.3809 9.22234L11.8126 13.6665H18.1876L16.6192 9.22234C16.5618 9.05979 16.4554 8.91904 16.3147 8.81949C16.174 8.71994 16.0058 8.66649 15.8334 8.6665Z"
        fill="white"
      />
    </svg>